<?xml version="1.0" standalone="no"?>
<!DOCTYPE svg PUBLIC "-//W3C//DTD SVG 20010904//EN"
 "http://www.w3.org/TR/2001/REC-SVG-20010904/DTD/svg10.dtd">
<svg version="1.0" xmlns="http://www.w3.org/2000/svg"
 width="2322.000000pt" height="2322.000000pt" viewBox="0 0 2322.000000 2322.000000"
 preserveAspectRatio="xMidYMid meet">
<metadata>
Created by potrace 1.14, written by Peter Selinger 2001-2017
</metadata>
<g transform="translate(0.000000,2322.000000) scale(0.100000,-0.100000)"
fill="#000000" stroke="none">
<path d="M236 14273 c3 -5136 3 -5399 1 -7393 l-2 -1765 475 -2 c261 -1 1450
-4 2643 -7 1775 -4 2166 -2 2160 9 -5 7 -35 43 -69 81 -34 38 -101 114 -149
169 -48 55 -112 127 -141 160 -29 33 -63 71 -74 85 -12 14 -36 41 -53 60 -18
19 -66 73 -107 120 -41 47 -77 87 -80 90 -3 3 -52 59 -110 125 -58 66 -107
122 -110 125 -3 3 -39 43 -80 90 -41 47 -77 87 -80 90 -3 3 -52 59 -110 125
-58 66 -109 125 -115 131 -19 20 -150 168 -177 199 -14 16 -86 98 -160 180
-73 83 -191 218 -263 299 -71 82 -137 156 -146 165 -8 9 -51 57 -94 106 -43
50 -108 124 -145 165 -78 88 -449 508 -524 594 -28 32 -56 63 -62 70 -5 6 -64
72 -129 146 -65 74 -121 137 -125 140 -3 3 -52 59 -110 125 -58 66 -121 138
-141 160 -20 22 -50 56 -65 74 -16 19 -38 44 -49 56 -11 11 -49 54 -85 94 -36
41 -69 79 -75 85 -5 6 -57 65 -115 131 -58 66 -109 125 -115 131 -24 26 -145
162 -175 197 -19 22 -44 43 -56 47 -13 5 -27 18 -33 28 -18 33 7 51 79 57 130
11 167 17 288 46 214 52 449 142 704 269 168 84 358 190 425 237 17 13 34 23
37 23 8 0 209 135 310 208 424 306 859 730 1152 1124 229 308 419 646 548 976
48 123 121 341 130 389 2 10 13 54 25 98 22 86 67 337 75 420 18 181 21 242
21 425 0 185 -9 383 -19 450 -3 14 -7 48 -11 75 -21 172 -64 384 -112 550 -41
142 -77 248 -132 388 -39 98 -162 346 -219 441 -23 37 -42 70 -42 71 0 6 -102
160 -154 230 -50 69 -180 232 -231 290 -116 131 -384 386 -469 445 -12 8 -34
26 -49 40 -59 52 -277 202 -414 285 -286 173 -591 314 -908 420 -143 48 -348
106 -415 119 -14 2 -45 9 -70 15 -87 19 -309 56 -400 66 -30 3 -71 7 -90 10
-45 5 -144 14 -245 20 -44 3 -109 8 -145 10 -36 2 -119 7 -185 10 -66 3 -156
8 -201 10 -44 2 -161 7 -260 10 l-180 6 2 -3718z"/>
<path d="M9152 11558 c1 -3522 3 -6409 6 -6415 2 -8 15 -11 31 -9 14 3 62 7
105 11 43 4 88 9 100 11 12 2 46 7 76 10 30 3 66 7 79 9 13 2 45 7 70 11 25 4
55 8 66 10 11 3 36 6 55 9 19 3 46 7 60 10 14 3 39 7 55 10 17 3 41 8 55 10
14 3 34 7 45 9 591 117 1259 363 1820 671 182 100 661 403 685 434 3 3 50 39
105 80 55 41 102 77 105 80 3 4 25 22 50 41 235 182 614 547 830 799 30 36 62
72 70 80 30 32 198 248 273 351 42 58 80 110 84 115 43 55 293 449 293 462 0
3 8 17 18 31 35 51 183 337 257 497 115 251 229 549 314 825 21 70 80 287 86
321 2 11 7 29 10 39 3 10 7 27 9 37 2 10 15 72 29 138 30 140 33 158 47 245
28 173 45 300 55 410 7 66 8 79 21 255 10 132 10 629 0 780 -16 237 -24 320
-47 480 -5 39 -12 88 -15 110 -6 47 -40 240 -54 305 -65 311 -128 546 -210
790 -90 266 -137 389 -238 620 -84 193 -294 594 -395 755 -114 182 -227 356
-237 365 -4 3 -22 28 -40 55 -29 42 -87 122 -119 161 -4 5 -25 32 -45 59 -41
53 -108 137 -116 145 -3 3 -18 21 -34 40 -136 166 -417 460 -587 612 -41 36
-90 80 -109 98 -131 117 -433 348 -625 477 -250 168 -604 363 -865 477 -36 15
-79 34 -97 42 -202 90 -682 247 -853 280 -14 3 -43 10 -65 16 -22 5 -49 12
-60 14 -11 2 -45 9 -75 15 -30 6 -64 12 -75 14 -11 2 -29 6 -40 8 -11 3 -56
10 -100 17 -107 15 -121 17 -185 25 -30 4 -62 9 -71 10 -8 2 -53 6 -100 10
-46 3 -100 8 -119 10 -19 2 -115 6 -212 9 l-177 6 1 -6402z"/>
<path d="M23058 17926 c-1 -2 -55 -7 -118 -11 -122 -7 -149 -9 -245 -20 -198
-21 -428 -57 -615 -96 -52 -11 -103 -22 -112 -25 -10 -2 -26 -6 -35 -8 -10 -2
-47 -12 -83 -21 -36 -9 -74 -19 -84 -21 -69 -13 -391 -114 -531 -166 -488
-181 -890 -384 -1304 -660 -125 -84 -379 -268 -411 -299 -8 -8 -31 -26 -52
-41 -20 -15 -42 -33 -50 -40 -7 -7 -29 -26 -48 -42 -173 -141 -547 -513 -705
-701 -60 -71 -112 -132 -116 -135 -49 -40 -529 -734 -529 -765 0 -2 -17 -32
-38 -66 -237 -393 -503 -1031 -629 -1509 -59 -225 -68 -263 -112 -480 -42
-207 -78 -455 -96 -665 -3 -38 -8 -86 -10 -105 -23 -213 -23 -850 0 -1054 2
-17 6 -65 10 -106 3 -41 8 -86 9 -100 2 -14 7 -54 11 -90 4 -36 14 -108 22
-160 7 -52 16 -109 18 -125 4 -28 70 -364 80 -410 3 -11 21 -81 41 -155 19
-74 40 -153 45 -175 5 -22 43 -139 84 -260 90 -264 80 -236 90 -260 4 -11 21
-54 37 -95 16 -41 33 -84 38 -95 5 -11 20 -45 33 -75 382 -882 963 -1674 1677
-2286 58 -50 139 -117 180 -150 41 -32 77 -61 80 -64 6 -6 180 -132 280 -202
101 -70 322 -207 462 -286 147 -83 573 -292 594 -292 4 0 25 -9 48 -19 77 -36
313 -124 446 -166 30 -10 64 -21 75 -26 89 -37 658 -173 815 -195 19 -2 44 -7
56 -9 44 -10 266 -39 384 -50 131 -13 157 -15 248 -19 l92 -5 0 6399 c0 5473
-2 6399 -14 6403 -8 3 -16 4 -18 3z"/>
</g>
</svg>
